<svg width="96" height="40" viewBox="0 0 96 40" fill="none" xmlns="http://www.w3.org/2000/svg">
<g clip-path="url(#clip0_65_202)">
<path d="M29.9507 0H9.45813C4.23455 0 0 4.29807 0 9.6V30.4C0 35.7019 4.23455 40 9.45813 40H29.9507C35.1743 40 39.4089 35.7019 39.4089 30.4V9.6C39.4089 4.29807 35.1743 0 29.9507 0Z" fill="url(#paint0_linear_65_202)"/>
<path d="M19.7043 32C13.0662 32 7.88177 29.5794 7.88177 26.4941C7.88177 23.409 13.0662 20.9883 19.7043 20.9883C26.3423 20.9883 31.5268 23.409 31.5268 26.4941C31.5752 29.5794 26.3907 32 19.7043 32ZM19.7043 21.985C13.793 21.985 8.85084 24.0735 8.85084 26.5416C8.85084 29.0098 13.8415 31.0983 19.7043 31.0983C25.5671 31.0983 30.5576 29.0098 30.5576 26.5416C30.5576 24.0735 25.6154 21.985 19.7043 21.985Z" fill="white"/>
<path fill-rule="evenodd" clip-rule="evenodd" d="M26.889 14.5072C26.9079 14.5994 26.9079 14.6732 26.9079 14.747C27.1092 18.1973 25.1849 21.3286 23.4013 24.231C23.1727 24.603 22.9465 24.971 22.7274 25.3357C21.7059 27.0512 20.6088 28.7115 19.4171 30.3163C17.2039 27.2541 15.3501 23.9522 13.9314 20.484C13.0234 18.2704 12.1343 15.7985 12.6829 13.3819C12.7964 12.9023 12.9477 12.4596 13.1558 12.0169C14.8015 8.5488 19.0198 7.03615 22.5761 8.64104C24.9217 9.72943 26.6809 11.9431 26.889 14.5072ZM23.9992 15.1059C23.9992 17.367 22.0548 19.2 19.6562 19.2C17.2576 19.2 15.3131 17.367 15.3131 15.1059C15.3131 12.8448 17.2576 11.0118 19.6562 11.0118C22.0548 11.0118 23.9992 12.8448 23.9992 15.1059Z" fill="white"/>
<path d="M57.8226 12.48V27.04H55.3498L48.9162 16.6099V27.04H46.4434V12.48H48.9162L55.3695 22.9299V12.48H57.8226ZM63.6256 25.86L66.5222 16.22H69.064L64.7882 28.6899C64.6897 28.9566 64.5615 29.2467 64.4039 29.56C64.2462 29.8733 64.0394 30.1699 63.7833 30.4499C63.5337 30.7366 63.2216 30.9667 62.8474 31.14C62.4728 31.32 62.0198 31.4099 61.4876 31.4099C61.2775 31.4099 61.074 31.3901 60.8769 31.3501C60.6864 31.3166 60.5057 31.28 60.335 31.24L60.3252 29.4C60.3908 29.4067 60.4696 29.4133 60.5617 29.42C60.66 29.4267 60.7388 29.4301 60.7981 29.4301C61.1922 29.4301 61.5206 29.38 61.7833 29.28C62.046 29.1867 62.2594 29.0333 62.4237 28.82C62.5944 28.6067 62.7389 28.32 62.8572 27.96L63.6256 25.86ZM61.9902 16.22L64.5221 24.32L64.9458 26.86L63.3004 27.2899L59.4286 16.22H61.9902ZM76.2759 24.8701V19.7101C76.2759 19.3234 76.207 18.9901 76.0689 18.7101C75.9311 18.4301 75.7208 18.2133 75.4384 18.06C75.1625 17.9067 74.8144 17.8301 74.3942 17.8301C74.0065 17.8301 73.6716 17.8966 73.3891 18.0301C73.1068 18.1634 72.8867 18.3434 72.7291 18.5699C72.5714 18.7966 72.4926 19.0533 72.4926 19.34H70.1281C70.1281 18.9133 70.2299 18.5 70.4334 18.1C70.6371 17.7 70.9327 17.3434 71.3203 17.0301C71.7078 16.7166 72.1707 16.4701 72.7094 16.2899C73.248 16.1101 73.8522 16.02 74.5222 16.02C75.3234 16.02 76.0328 16.1566 76.6503 16.4301C77.2742 16.7034 77.7635 17.1166 78.1182 17.6701C78.4795 18.2166 78.6601 18.9034 78.6601 19.7299V24.54C78.6601 25.0333 78.6929 25.4766 78.7586 25.8701C78.8308 26.2566 78.9327 26.5933 79.064 26.88V27.04H76.6306C76.5189 26.78 76.4302 26.4499 76.3646 26.0499C76.3053 25.6434 76.2759 25.2499 76.2759 24.8701ZM76.6206 20.46L76.6405 21.9501H74.936C74.4959 21.9501 74.1084 21.9933 73.7734 22.08C73.4384 22.16 73.1593 22.28 72.936 22.44C72.7127 22.6 72.5451 22.7933 72.4335 23.02C72.3219 23.2467 72.2661 23.5034 72.2661 23.7901C72.2661 24.0766 72.3317 24.34 72.4631 24.58C72.5944 24.8133 72.7849 24.9966 73.0344 25.1299C73.2907 25.2634 73.5994 25.3299 73.9607 25.3299C74.4467 25.3299 74.8702 25.2301 75.2315 25.0301C75.5993 24.8234 75.8884 24.5733 76.0985 24.28C76.3087 23.98 76.4204 23.6966 76.4335 23.4301L77.202 24.5C77.1232 24.7733 76.9885 25.0667 76.7981 25.38C76.6075 25.6933 76.358 25.9933 76.0493 26.28C75.7472 26.56 75.3826 26.7901 74.9557 26.9699C74.5353 27.1501 74.0493 27.24 73.4975 27.24C72.8013 27.24 72.1807 27.1 71.6356 26.82C71.0903 26.5333 70.6634 26.1501 70.3546 25.6701C70.046 25.1834 69.8916 24.6333 69.8916 24.02C69.8916 23.4467 69.9968 22.94 70.2069 22.5C70.4237 22.0533 70.7389 21.68 71.1527 21.38C71.5731 21.08 72.0854 20.8533 72.6897 20.7C73.2939 20.54 73.9835 20.46 74.7586 20.46H76.6206ZM83.6847 11.68V27.04H81.3005V11.68H83.6847ZM92.2956 24.8701V19.7101C92.2956 19.3234 92.2265 18.9901 92.0888 18.7101C91.9507 18.4301 91.7405 18.2133 91.4582 18.06C91.1824 17.9067 90.8341 17.8301 90.4137 17.8301C90.0263 17.8301 89.6913 17.8966 89.409 18.0301C89.1265 18.1634 88.9064 18.3434 88.7488 18.5699C88.5911 18.7966 88.5123 19.0533 88.5123 19.34H86.1478C86.1478 18.9133 86.2496 18.5 86.4533 18.1C86.6568 17.7 86.9524 17.3434 87.3398 17.0301C87.7275 16.7166 88.1904 16.4701 88.7291 16.2899C89.2677 16.1101 89.8719 16.02 90.5419 16.02C91.3431 16.02 92.0525 16.1566 92.67 16.4301C93.2939 16.7034 93.7833 17.1166 94.138 17.6701C94.4992 18.2166 94.6798 18.9034 94.6798 19.7299V24.54C94.6798 25.0333 94.7126 25.4766 94.7783 25.8701C94.8505 26.2566 94.9524 26.5933 95.0838 26.88V27.04H92.6503C92.5387 26.78 92.4499 26.4499 92.3842 26.0499C92.3252 25.6434 92.2956 25.2499 92.2956 24.8701ZM92.6405 20.46L92.66 21.9501H90.9557C90.5156 21.9501 90.1281 21.9933 89.7931 22.08C89.4581 22.16 89.179 22.28 88.9556 22.44C88.7324 22.6 88.5648 22.7933 88.4532 23.02C88.3416 23.2467 88.2856 23.5034 88.2856 23.7901C88.2856 24.0766 88.3514 24.34 88.4827 24.58C88.6142 24.8133 88.8046 24.9966 89.0543 25.1299C89.3103 25.2634 89.6191 25.3299 89.9802 25.3299C90.4664 25.3299 90.8899 25.2301 91.2512 25.0301C91.619 24.8234 91.9081 24.5733 92.1182 24.28C92.3284 23.98 92.4401 23.6966 92.4532 23.4301L93.2217 24.5C93.1429 24.7733 93.0082 25.0667 92.8177 25.38C92.6272 25.6933 92.3777 25.9933 92.0689 26.28C91.7669 26.56 91.4023 26.7901 90.9754 26.9699C90.555 27.1501 90.069 27.24 89.5173 27.24C88.821 27.24 88.2004 27.1 87.6551 26.82C87.11 26.5333 86.6831 26.1501 86.3745 25.6701C86.0657 25.1834 85.9113 24.6333 85.9113 24.02C85.9113 23.4467 86.0165 22.94 86.2266 22.5C86.4434 22.0533 86.7586 21.68 87.1724 21.38C87.5928 21.08 88.1052 20.8533 88.7094 20.7C89.3136 20.54 90.0032 20.46 90.7783 20.46H92.6405Z" fill="#46B54D"/>
</g>
<defs>
<linearGradient id="paint0_linear_65_202" x1="0" y1="0" x2="38.8545" y2="40.5316" gradientUnits="userSpaceOnUse">
<stop stop-color="#009F0A"/>
<stop offset="1" stop-color="#46B54D"/>
</linearGradient>
<clipPath id="clip0_65_202">
<rect width="96" height="40" fill="white"/>
</clipPath>
</defs>
</svg>
